<?xml version="1.0" standalone="no"?>
<!DOCTYPE svg PUBLIC "-//W3C//DTD SVG 1.1//EN" "http://www.w3.org/Graphics/SVG/1.1/DTD/svg11.dtd" >
<svg xmlns="http://www.w3.org/2000/svg">
<metadata>
<json>
<![CDATA[
{
	"fontFamily": "jetpad",
	"majorVersion": 1,
	"minorVersion": 0,
	"version": "Version 1.0",
	"fontId": "jetpad",
	"psName": "jetpad",
	"subFamily": "Regular",
	"fullName": "jetpad",
	"description": "Font generated by IcoMoon."
}
]]>
</json>
</metadata>
<defs>
<font id="jetpad" horiz-adv-x="1024">
<font-face units-per-em="1024" ascent="960" descent="-64" />
<missing-glyph horiz-adv-x="1024" />
<glyph unicode="&#x20;" horiz-adv-x="0" d="" />
<glyph unicode="&#x41;" glyph-name="label" data-tags="label" d="M740 240l-214 134-216-134v538h430zM740 832h-430c-30 0-54-24-54-54v-538c0 0 0 0 0 0 0-38 44-60 76-40l194 120 192-120c26-16 64-6 74 22 2 6 2 12 2 18v538c0 30-24 54-54 54z" />
<glyph unicode="&#x42;" glyph-name="text-indent" data-tags="text-indent" d="M704 768h-576c-18 0-32-14-32-32s14-32 32-32h576c18 0 32 14 32 32s-14 32-32 32zM896 608h-576c-18 0-32-14-32-32s14-32 32-32h576c18 0 32 14 32 32s-14 32-32 32zM896 448h-576c-18 0-32-14-32-32s14-32 32-32h576c18 0 32 14 32 32s-14 32-32 32zM896 288h-576c-18 0-32-14-32-32s14-32 32-32h576c18 0 32 14 32 32s-14 32-32 32z" />
<glyph unicode="&#x44;" glyph-name="share" data-tags="share" d="M524 452c12 12 12 32 0 46-36 34-36 90 0 126l102 102c34 34 94 34 126 0 36-34 36-90 0-126l-50-52c-14-12-14-32 0-44 12-14 32-14 44 0l52 50c60 60 60 158 0 218-28 30-68 46-108 46-42 0-80-16-110-46l-102-102c-60-60-60-158 0-218 6-6 14-10 22-10 10 0 18 4 24 10zM514 260l104 104c60 60 60 158 0 218-14 12-34 12-46 0s-12-34 0-46c34-34 34-92 0-126l-104-104c-34-34-90-34-126 0-16 18-26 40-26 64s10 46 26 62l52 52c12 14 12 34 0 46s-32 12-46 0l-52-52c-28-28-44-68-44-108 0-42 16-80 44-110 30-28 70-44 110-44s80 16 108 44z" />
<glyph unicode="&#x45;" glyph-name="close" data-tags="close" d="M624 626c-8 8-22 8-32 0l-80-82-82 82c-8 8-22 8-32 0-8-10-8-24 0-32l82-82-82-80c-8-10-8-24 0-32 10-10 24-10 32 0l82 80 80-80c10-10 24-10 32 0 10 8 10 22 0 32l-80 80 80 82c10 8 10 22 0 32M512 272c-132 0-240 108-240 240s108 240 240 240c132 0 240-108 240-240s-108-240-240-240M512 800c-160 0-288-128-288-288s128-288 288-288c160 0 288 128 288 288s-128 288-288 288" />
<glyph unicode="&#x46;" glyph-name="text-center" data-tags="text-center" d="M320 736h416c18 0 32-14 32-32s-14-32-32-32h-416c-18 0-32 14-32 32s14 32 32 32zM320 480h416c18 0 32-14 32-32s-14-32-32-32h-416c-18 0-32 14-32 32s14 32 32 32zM416 608h256c18 0 32-14 32-32s-14-32-32-32h-256c-18 0-32 14-32 32s14 32 32 32zM416 352h256c18 0 32-14 32-32s-14-32-32-32h-256c-18 0-32 14-32 32s14 32 32 32z" />
<glyph unicode="&#x47;" glyph-name="text-right" data-tags="text-right" d="M320 736h416c18 0 32-14 32-32s-14-32-32-32h-416c-18 0-32 14-32 32s14 32 32 32zM320 480h416c18 0 32-14 32-32s-14-32-32-32h-416c-18 0-32 14-32 32s14 32 32 32zM480 608h256c18 0 32-14 32-32s-14-32-32-32h-256c-18 0-32 14-32 32s14 32 32 32zM480 352h256c18 0 32-14 32-32s-14-32-32-32h-256c-18 0-32 14-32 32s14 32 32 32z" />
<glyph unicode="&#x48;" glyph-name="text-left" data-tags="text-left" d="M320 736h416c18 0 32-14 32-32s-14-32-32-32h-416c-18 0-32 14-32 32s14 32 32 32zM320 480h416c18 0 32-14 32-32s-14-32-32-32h-416c-18 0-32 14-32 32s14 32 32 32zM320 608h256c18 0 32-14 32-32s-14-32-32-32h-256c-18 0-32 14-32 32s14 32 32 32zM320 352h256c18 0 32-14 32-32s-14-32-32-32h-256c-18 0-32 14-32 32s14 32 32 32z" />
<glyph unicode="&#x49;" glyph-name="text-color-white" data-tags="text-color-white" d="M768 512c0 142-114 256-256 256s-256-114-256-256c0-142 114-256 256-256s256 114 256 256zM224 512c0 160 128 288 288 288s288-128 288-288c0-160-128-288-288-288s-288 128-288 288z" />
<glyph unicode="&#x4a;" glyph-name="text-color" data-tags="text-color" d="M800 512c0-160-128-288-288-288s-288 128-288 288c0 160 128 288 288 288s288-128 288-288z" />
<glyph unicode="&#x4b;" glyph-name="text-decoration" data-tags="text-decoration" d="M548 720c4 0 8-2 10-4 4-2 6-6 8-12l118-304c0 0 0-2 0-4s-2-6-4-8c-2-2-6-4-10-4h-34c-6 0-10 2-14 4-2 2-4 6-4 8l-22 54h-150l-22-54c0-2-2-6-4-8-4-2-8-4-14-4h-34c-4 0-8 2-10 4s-4 6-4 8c0 2 0 4 0 4l118 304c2 6 4 10 8 12 2 2 6 4 10 4zM574 510l-54 136-52-136zM720 288h-384c-26 0-48-22-48-48s22-48 48-48h384c26 0 48 22 48 48s-22 48-48 48z" />
<glyph unicode="&#x4c;" glyph-name="text-underline-doble" data-tags="text-underline-doble" d="M650 816c2 0 6-2 8-4s4-6 4-8v-198c0-20-2-38-8-54s-14-30-26-40c-12-12-26-22-44-28-16-6-36-8-60-8-22 0-42 2-60 8s-32 16-42 28c-12 10-20 24-26 40s-8 34-8 54v198c0 2 0 6 2 8 4 2 6 4 10 4h38c4 0 8-2 10-4s4-6 4-8v-196c0-12 2-24 6-32 2-10 8-18 14-24s14-10 24-12c8-4 18-4 28-4s20 0 30 4c8 2 16 6 24 12 6 6 10 14 14 24 4 8 6 20 6 32v196c0 2 2 6 4 8s6 4 8 4zM736 384h-416c-18 0-32-14-32-32s14-32 32-32h416c18 0 32 14 32 32s-14 32-32 32zM736 256h-416c-18 0-32-14-32-32s14-32 32-32h416c18 0 32 14 32 32s-14 32-32 32z" />
<glyph unicode="&#x4d;" glyph-name="text-strike-through" data-tags="text-strike-through" d="M650 688c2 0 6-2 8-4s4-6 4-8v-198c0-20-2-38-8-54s-14-30-26-40c-12-12-26-22-44-28-16-6-36-8-60-8-22 0-42 2-60 8s-32 16-42 28c-12 10-20 24-26 40s-8 34-8 54v198c0 2 0 6 2 8 4 2 6 4 10 4h38c4 0 8-2 10-4s4-6 4-8v-196c0-12 2-24 6-32 2-10 8-18 14-24s14-10 24-12c8-4 18-4 28-4s20 0 30 4c8 2 16 6 24 12 6 6 10 14 14 24 4 8 6 20 6 32v196c0 2 2 6 4 8s6 4 8 4zM320 512h416c18 0 32-14 32-32s-14-32-32-32h-416c-18 0-32 14-32 32s14 32 32 32z" />
<glyph unicode="&#x4e;" glyph-name="arrow-down" data-tags="arrow-down" d="M742 472l-190-190c-14-14-36-14-48 0l-192 190c-14 14-14 36 0 48 14 14 34 14 48 0l168-166 166 166c14 14 36 14 48 0 14-12 14-34 0-48" />
<glyph unicode="&#x4f;" glyph-name="text-underline" data-tags="text-underline" d="M650 688c2 0 6-2 8-4s4-6 4-8v-198c0-20-2-38-8-54s-14-30-26-40c-12-12-26-22-44-28-16-6-36-8-60-8-22 0-42 2-60 8s-32 16-42 28c-12 10-20 24-26 40s-8 34-8 54v198c0 2 0 6 2 8 4 2 6 4 10 4h38c4 0 8-2 10-4s4-6 4-8v-196c0-12 2-24 6-32 2-10 8-18 14-24s14-10 24-12c8-4 18-4 28-4s20 0 30 4c8 2 16 6 24 12 6 6 10 14 14 24 4 8 6 20 6 32v196c0 2 2 6 4 8s6 4 8 4zM320 256h416c18 0 32-14 32-32s-14-32-32-32h-416c-18 0-32 14-32 32s14 32 32 32z" />
<glyph unicode="&#x50;" glyph-name="text-italic" data-tags="text-italic" d="M632 652l-4-14c-4-2-10-2-18-4-8 0-14-2-18-2-6-2-10-6-14-10-2-4-4-8-6-14l-56-242c0-2 0-4 0-4-2-2-2-4-2-4 0-4 2-6 4-10 0-2 4-4 8-6 2-2 8-2 16-4s14-2 16-2l-2-16h-150l4 16c4 0 10 0 18 0 8 2 14 2 18 4 6 2 10 4 14 8 2 4 4 10 6 14l56 244c0 2 0 2 0 4s0 2 0 4c0 4 0 6-2 8 0 2-4 6-8 6-4 2-10 4-18 6-6 2-12 2-16 4l4 14z" />
<glyph unicode="&#x51;" glyph-name="text-bold" data-tags="text-bold" d="M398 352c-2 0-6 2-8 4-4 2-4 6-4 8v312c0 2 0 6 4 8 2 2 6 4 8 4h156c20 0 38-2 54-8 14-6 26-14 34-24 10-10 16-20 20-32s6-24 6-36c0-10-2-18-4-24s-4-12-8-18c-2-4-6-8-8-12-4-2-6-6-8-6 12-10 22-20 26-30 6-12 8-26 8-42 0-12-2-26-6-38s-10-24-18-34c-10-10-20-18-34-24-16-6-32-8-52-8zM578 586c0 8-2 16-8 20-4 6-12 8-22 8h-74v-56h74c10 0 18 4 22 8 6 6 8 12 8 20zM474 426h80c10 0 16 4 22 8 6 6 10 14 10 22s-4 14-10 20c-6 6-12 8-22 8h-80z" />
<glyph unicode="&#x52;" glyph-name="caret" data-tags="caret" d="M528 416l112 192h-224z" />
<glyph unicode="&#x61;" glyph-name="23" data-tags="23" d="M352 448l96-96h-96zM766 832l66-66-352-350-64 64zM288 288h160l430 434c24 24 24 64 0 88l-68 68c-24 24-64 24-88 0l-434-430zM832 538v-346h-640v640h346l64 64h-410c-36 0-64-30-64-64v-640c0-36 28-64 64-64h640c36 0 64 28 64 64v410z" />
<glyph unicode="&#x62;" glyph-name="tick-check" data-tags="tick-check" d="M346 590l-56-58 182-182 404 406-56 56-348-348zM836 512c0-178-146-324-324-324s-324 146-324 324c0 178 146 324 324 324 32 0 60-4 90-12l64 64c-48 18-102 30-154 30-222 0-406-184-406-406s184-406 406-406c222 0 406 184 406 406z" />
<glyph unicode="&#x6b;" glyph-name="go-back" data-tags="go-back" d="M302 368c12-10 30-10 40 0 12 10 12 28 0 40l-92 90-6-14h616c16 0 28 12 28 28s-12 28-28 28h-640l30-14 92 90c12 12 12 30 0 40-10 10-28 10-40 0l-126-124c-6-6-8-12-8-20s2-14 8-20z" />
<glyph unicode="&#x6c;" glyph-name="text-justify" data-tags="text-justify" d="M736 736h-416c-18 0-32-14-32-32s14-32 32-32h416c18 0 32 14 32 32s-14 32-32 32zM736 480h-416c-18 0-32-14-32-32s14-32 32-32h416c18 0 32 14 32 32s-14 32-32 32zM736 608h-416c-18 0-32-14-32-32s14-32 32-32h416c18 0 32 14 32 32s-14 32-32 32zM736 352h-416c-18 0-32-14-32-32s14-32 32-32h416c18 0 32 14 32 32s-14 32-32 32z" />
<glyph unicode="&#x6d;" glyph-name="menu-vertical" data-tags="menu-vertical" d="M608 816c0-44-36-80-80-80s-80 36-80 80c0 44 36 80 80 80s80-36 80-80zM608 496c0-44-36-80-80-80s-80 36-80 80c0 44 36 80 80 80s80-36 80-80zM608 176c0-44-36-80-80-80s-80 36-80 80c0 44 36 80 80 80s80-36 80-80z" />
<glyph unicode="&#x6e;" glyph-name="search" data-tags="search" d="M648 536c4-4 8-12 8-18 0-8-4-14-8-20-6-4-12-6-20-6-6 0-14 2-18 6-6 6-8 12-8 20 0 6 2 14 8 18 4 6 12 8 18 8 8 0 14-2 20-8M696 588c0-12-10-20-22-20-2 0-2 0-4 0-12 2-22 14-20 26 6 34-34 52-36 54-12 6-16 18-12 30 6 12 20 18 32 12 2-2 72-32 62-102M592 434c-84 0-154 70-154 156s70 156 154 156c86 0 154-70 154-156s-68-156-154-156M592 800c-114 0-206-94-206-210 0-48 16-94 44-128l-198-200c-10-12-10-32 0-42 6-6 14-10 22-10s16 4 22 10l196 200c34-26 76-40 120-40 114 0 208 94 208 210s-94 210-208 210" />
<glyph unicode="&#x6f;" glyph-name="user" data-tags="user" d="M512 458c-142 0-208-122-224-266h50c14 116 60 214 174 214s160-98 174-214h50c-16 144-82 266-224 266M512 778c56 0 102-48 102-106s-46-106-102-106c-56 0-102 48-102 106s46 106 102 106M512 512c84 0 152 72 152 160s-68 160-152 160c-84 0-152-72-152-160s68-160 152-160" />
<glyph unicode="&#x70;" glyph-name="lock" data-tags="lock" d="M500 438c-16 0-28-12-28-28v-56c0-16 12-28 28-28s28 12 28 28v56c0 16-12 28-28 28zM500 212c-92 0-166 76-166 170s74 170 166 170c92 0 166-76 166-170s-74-170-166-170zM388 578h4c0 0-2 0-4-2zM444 720c0 30 26 56 56 56s56-26 56-56v-120c-18 4-36 8-56 8s-38-4-56-8zM610 578v-2c0 2-2 2-2 2zM610 576v144c0 62-48 112-110 112s-112-50-112-112v-144c-66-38-110-110-110-194 0-124 100-226 222-226s222 102 222 226c0 84-44 156-112 194z" />
<glyph unicode="&#x71;" glyph-name="square" data-tags="square" d="M310 246c0 0 468 0 468 0s0 468 0 468c0 0-468 0-468 0s0-468 0-468zM310 768h468c30 0 54-24 54-54v-468c0-30-24-54-54-54h-468c-30 0-54 24-54 54v468c0 30 24 54 54 54z" />
<glyph unicode="&#x72;" glyph-name="cross" data-tags="cross" d="M660 430c10-10 10-26 0-34-4-6-10-8-16-8s-12 2-18 8l-98 98-98-98c-6-6-12-8-18-8s-12 2-16 8-10 24 0 34l98 98-98 98c-10 10-10 26 0 34 8 10 24 10 34 0l98-98 98 98c10 10 26 10 34 0 10-8 10-24 0-34l-98-98z" />
<glyph unicode="&#x73;" glyph-name="link" data-tags="link" d="M476 488c18 0 32 16 32 32 0 50 40 90 90 90h144c48 0 90-42 90-90s-40-88-90-88h-72c-18 0-32-14-32-32s14-34 32-34h72c86 0 154 70 154 154 0 42-16 80-44 110-30 28-68 44-110 44h-144c-86 0-154-68-154-154 0-8 2-16 8-22s14-10 24-10zM334 360h146c84 0 154 70 154 154 0 18-14 32-32 32s-32-14-32-32c0-50-40-90-90-90h-146c-48 0-88 40-88 90 0 24 8 46 26 64 16 16 38 26 62 26h74c18 0 32 14 32 32s-14 32-32 32h-74c-40 0-80-16-108-46-30-28-46-66-46-108s16-80 46-108c28-30 68-46 108-46z" />
<glyph unicode="&#x74;" glyph-name="text-sort" data-tags="text-sort" d="M672 550c-10 12-28 12-40 0l-90-92 14-6v296c0 16-12 28-28 28s-28-12-28-28v-296l14 6-90 92c-12 12-30 12-40 0-10-10-10-28 0-40l124-126c6-6 12-8 20-8s14 2 20 8l124 126c10 12 10 30 0 40zM736 288h-416c-18 0-32-14-32-32s14-32 32-32h416c18 0 32 14 32 32s-14 32-32 32z" />
<glyph unicode="&#x75;" glyph-name="text-dots" data-tags="text-dots" d="M832 800h-416c-18 0-32-14-32-32s14-32 32-32h416c18 0 32 14 32 32s-14 32-32 32zM224 832c-36 0-64-28-64-64s28-64 64-64c36 0 64 28 64 64s-28 64-64 64zM224 576c-36 0-64-28-64-64s28-64 64-64c36 0 64 28 64 64s-28 64-64 64zM224 320c-36 0-64-28-64-64s28-64 64-64c36 0 64 28 64 64s-28 64-64 64zM832 544h-416c-18 0-32-14-32-32s14-32 32-32h416c18 0 32 14 32 32s-14 32-32 32zM832 288h-416c-18 0-32-14-32-32s14-32 32-32h416c18 0 32 14 32 32s-14 32-32 32z" />
<glyph unicode="&#x76;" glyph-name="text-number" data-tags="text-number" d="M864 768h-416c-18 0-32-14-32-32s14-32 32-32h416c18 0 32 14 32 32s-14 32-32 32zM132 778c0 2 0 4 0 4 0 2 0 4 2 4l48 38c2 0 2 2 4 4 2 0 4 0 6 0h28c2 0 2 0 4 0 2-2 2-4 2-6v-144c0-2 0-4-2-4-2-2-2-2-4-2h-30c-2 0-2 0-4 2 0 0-2 2-2 4v98l-26-20c-2-2-4-2-4-2-2 0-4 2-4 2zM264 522c0-4 0-8-2-12 0-4-2-8-4-12s-6-8-8-12c-4-2-8-6-14-10l-30-24h56c0 0 2 0 4-2 0-2 2-2 2-4v-24c0-2-2-4-2-4-2-2-4-2-4-2h-118c-2 0-4 0-6 2 0 0-2 2-2 4v20c0 2 2 4 2 6 2 2 4 4 6 6l66 48c6 4 8 8 10 12 2 2 2 6 2 8s0 2 0 4-2 4-2 6c-2 2-4 4-6 6-4 0-6 2-10 2s-8-2-10-2c-4-2-6-4-6-6-2-2-4-4-4-6s-2-2-2-4c0-2-2-2-2-4-2 0-4 0-6 0h-28c-2 0-2 0-4 0 0 2 0 4 0 4 0 6 0 12 4 20 2 6 6 10 10 16 6 6 12 10 20 12 8 4 16 6 28 6 10 0 18-2 26-6 6-2 14-6 18-10 6-6 10-12 12-18s4-12 4-20zM256 316c2 0 2 0 4 0 2-2 2-4 2-6v-22c0-2 0-4-2-6 0 0-2-2-2-2l-28-28c12-4 22-8 28-16 8-6 12-16 12-28 0-16-6-28-18-38-12-8-28-12-48-12-12 0-22 2-30 4s-14 6-20 10c-6 4-10 8-14 14-2 6-4 10-4 16 0 2 0 2 2 4 0 0 2 2 2 2h28c4 0 6-2 8-4 2 0 4-2 6-4s4-2 8-4c2-2 8-2 14-2s12 0 18 4c4 2 6 6 6 10 0 6-2 10-6 12-6 2-12 4-18 4h-20c0 0-2 0-4 2 0 0-2 2-2 4v18c0 2 2 4 2 6 2 0 2 2 4 2l24 24h-60c-2 0-2 2-4 2 0 2-2 4-2 6v22c0 2 2 4 2 6 2 0 2 0 4 0zM864 512h-416c-18 0-32-14-32-32s14-32 32-32h416c18 0 32 14 32 32s-14 32-32 32zM864 256h-416c-18 0-32-14-32-32s14-32 32-32h416c18 0 32 14 32 32s-14 32-32 32z" />
<glyph unicode="&#x77;" glyph-name="square-divider" data-tags="square-divider" d="M224 512h608v-32h-608zM512 800h32v-608h-32zM256 224c0 0 544 0 544 0s0 544 0 544c0 0-544 0-544 0s0-544 0-544zM256 832h544c36 0 64-28 64-64v-544c0-36-28-64-64-64h-544c-36 0-64 28-64 64v544c0 36 28 64 64 64z" />
<glyph unicode="&#x78;" glyph-name="image" data-tags="image" d="M388 580c30 0 56 26 56 56s-26 56-56 56c-30 0-56-26-56-56s26-56 56-56zM800 528c-4 0-8-2-12-4l-232-146-118 114c-4 6-12 8-18 8-8 0-14-2-20-8l-144-140v416h544zM800 224h-544v76l160 154 128-114c6-6 14-10 24-8 4 2 14 8 14 8l218 140zM808 832h-560c-30 0-56-26-56-56v-560c0-30 26-56 56-56h560c30 0 56 26 56 56v560c0 30-26 56-56 56z" />
<glyph unicode="&#x79;" glyph-name="dots" data-tags="dots" d="M742 442c-34 0-64 28-64 64 0 34 30 64 64 64 36 0 64-30 64-64 0-36-28-64-64-64zM512 442c36 0 64 28 64 64 0 34-28 64-64 64s-64-30-64-64c0-36 28-64 64-64zM282 442c-36 0-64 28-64 64 0 34 28 64 64 64 34 0 64-30 64-64 0-36-30-64-64-64z" />
<glyph unicode="&#x7a;" glyph-name="comment" data-tags="comment" d="M656 576c-26 0-48-22-48-48s22-48 48-48c26 0 48 22 48 48s-22 48-48 48zM336 576c-26 0-48-22-48-48s22-48 48-48c26 0 48 22 48 48s-22 48-48 48zM496 576c-26 0-48-22-48-48s22-48 48-48c26 0 48 22 48 48s-22 48-48 48zM768 256l-90 30c-118-90-288-82-398 28-118 118-118 310 0 430 120 118 312 118 430 0 110-110 118-280 28-398zM816 348c80 140 60 322-60 440-144 144-376 144-520 0s-144-376 0-520c118-120 300-140 440-60l188-48z" />
<glyph unicode="&#xf099;" glyph-name="twitter" data-tags="twitter" horiz-adv-x="951" d="M925.714 717.714c-25.143-36.571-56.571-69.143-92.571-95.429 0.571-8 0.571-16 0.571-24 0-244-185.714-525.143-525.143-525.143-104.571 0-201.714 30.286-283.429 82.857 14.857-1.714 29.143-2.286 44.571-2.286 86.286 0 165.714 29.143 229.143 78.857-81.143 1.714-149.143 54.857-172.571 128 11.429-1.714 22.857-2.857 34.857-2.857 16.571 0 33.143 2.286 48.571 6.286-84.571 17.143-148 91.429-148 181.143v2.286c24.571-13.714 53.143-22.286 83.429-23.429-49.714 33.143-82.286 89.714-82.286 153.714 0 34.286 9.143 65.714 25.143 93.143 90.857-112 227.429-185.143 380.571-193.143-2.857 13.714-4.571 28-4.571 42.286 0 101.714 82.286 184.571 184.571 184.571 53.143 0 101.143-22.286 134.857-58.286 41.714 8 81.714 23.429 117.143 44.571-13.714-42.857-42.857-78.857-81.143-101.714 37.143 4 73.143 14.286 106.286 28.571z" />
<glyph unicode="&#xf09a;" glyph-name="facebook" data-tags="facebook, facebook-f" horiz-adv-x="602" d="M548 944v-150.857h-89.714c-70.286 0-83.429-33.714-83.429-82.286v-108h167.429l-22.286-169.143h-145.143v-433.714h-174.857v433.714h-145.714v169.143h145.714v124.571c0 144.571 88.571 223.429 217.714 223.429 61.714 0 114.857-4.571 130.286-6.857z" />
<glyph unicode="&#xf0d5;" glyph-name="google-plus" data-tags="google-plus" horiz-adv-x="1317" d="M821.143 429.143c0-239.429-160.571-409.143-402.286-409.143-231.429 0-418.857 187.429-418.857 418.857s187.429 418.857 418.857 418.857c113.143 0 207.429-41.143 280.571-109.714l-113.714-109.143c-30.857 29.714-85.143 64.571-166.857 64.571-142.857 0-259.429-118.286-259.429-264.571s116.571-264.571 259.429-264.571c165.714 0 228 119.429 237.714 180.571h-237.714v144h395.429c4-21.143 6.857-42.286 6.857-69.714zM1316.571 498.857v-120h-119.429v-119.429h-120v119.429h-119.429v120h119.429v119.429h120v-119.429h119.429z" />
<glyph unicode="&#xf0e1;" glyph-name="linkedin" data-tags="linkedin" horiz-adv-x="878" d="M199.429 593.714v-566.286h-188.571v566.286h188.571zM211.429 768.571c0.571-54.286-40.571-97.714-106.286-97.714v0h-1.143c-63.429 0-104 43.429-104 97.714 0 55.429 42.286 97.714 106.286 97.714 64.571 0 104.571-42.286 105.143-97.714zM877.714 352v-324.571h-188v302.857c0 76-27.429 128-95.429 128-52 0-82.857-34.857-96.571-68.571-4.571-12.571-6.286-29.143-6.286-46.286v-316h-188c2.286 513.143 0 566.286 0 566.286h188v-82.286h-1.143c24.571 38.857 69.143 95.429 170.857 95.429 124 0 216.571-81.143 216.571-254.857z" />
<glyph unicode="&#xf281;" glyph-name="reddit" data-tags="reddit-alien" d="M1024 467.428c0-44.571-25.143-82.857-62.286-101.714 4.571-17.714 6.857-36 6.857-54.857 0-180.571-204-326.857-455.429-326.857-250.857 0-454.857 146.286-454.857 326.857 0 18.286 2.286 36.571 6.286 53.714-38.286 18.857-64.571 57.714-64.571 102.857 0 62.857 50.857 113.714 113.714 113.714 32.571 0 61.714-13.714 82.857-36 77.143 53.714 180 88.571 294.286 92.571l66.286 297.714c2.286 10.286 13.143 17.143 23.429 14.857l210.857-46.286c13.714 27.429 42.857 46.857 76 46.857 47.429 0 85.714-38.286 85.714-85.143 0-47.429-38.286-85.714-85.714-85.714-46.857 0-85.143 38.286-85.143 85.143l-190.857 42.286-59.429-269.714c114.857-3.429 218.857-37.714 296.571-91.429 20.571 21.714 49.714 34.857 81.714 34.857 62.857 0 113.714-50.857 113.714-113.714zM238.857 353.714c0-47.429 38.286-85.714 85.143-85.714 47.429 0 85.714 38.286 85.714 85.714 0 46.857-38.286 85.143-85.714 85.143-46.857 0-85.143-38.286-85.143-85.143zM701.714 150.857c8.571 8.571 8.571 21.143 0 29.714-8 8-21.143 8-29.143 0-34.286-34.857-108-46.857-160.571-46.857s-126.286 12-160.571 46.857c-8 8-21.143 8-29.143 0-8.571-8-8.571-21.143 0-29.714 54.286-54.286 158.857-58.286 189.714-58.286s135.429 4 189.714 58.286zM700 268c46.857 0 85.143 38.286 85.143 85.714 0 46.857-38.286 85.143-85.143 85.143-47.429 0-85.714-38.286-85.714-85.143 0-47.429 38.286-85.714 85.714-85.714z" />
</font>
</defs>
</svg>
